{"asset":{"version":"2.0","generator":"gen_meshes.py"},"scene":0,"scenes":[{"nodes":[0]}],"nodes":[{"mesh":0,"name":"mesh"}],"meshes":[{"primitives":[{"attributes":{"POSITION":0,"NORMAL":1,"COLOR_0":2,"TEXCOORD_0":3},"indices":4,"mode":4,"material":0}]}],"materials":[{"pbrMetallicRoughness":{"baseColorFactor":[1,1,1,1],"metallicFactor":0,"roughnessFactor":1},"doubleSided":true}],"accessors":[{"bufferView":0,"byteOffset":0,"componentType":5126,"count":36,"type":"VEC3","min":[-0.95,0.0,-0.95],"max":[0.95,0.12,0.95]},{"bufferView":1,"byteOffset":0,"componentType":5126,"count":36,"type":"VEC3","min":[-1.0,-1.0,-1.0],"max":[1.0,1.0,1.0]},{"bufferView":2,"byteOffset":0,"componentType":5126,"count":36,"type":"VEC4","min":[0.41759999999999997,0.6192,0.44639999999999996,1.0],"max":[0.5473579038670096,0.811599650561428,0.5851067248233551,1.0]},{"bufferView":3,"byteOffset":0,"componentType":5126,"count":36,"type":"VEC2","min":[0.0,0.0],"max":[0.0,0.0]},{"bufferView":4,"byteOffset":0,"componentType":5125,"count":36,"type":"SCALAR"}],"bufferViews":[{"buffer":0,"byteOffset":0,"byteLength":432,"target":34962},{"buffer":0,"byteOffset":432,"byteLength":432,"target":34962},{"buffer":0,"byteOffset":864,"byteLength":576,"target":34962},{"buffer":0,"byteOffset":1440,"byteLength":288,"target":34962},{"buffer":0,"byteOffset":1728,"byteLength":144,"target":34963}],"buffers":[{"uri":"data:application/octet-stream;base64,","byteLength":1872}]}