{"asset":{"version":"2.0","generator":"gen_meshes.py"},"scene":0,"scenes":[{"nodes":[0]}],"nodes":[{"mesh":0,"name":"mesh"}],"meshes":[{"primitives":[{"attributes":{"POSITION":0,"NORMAL":1,"COLOR_0":2,"TEXCOORD_0":3},"indices":4,"mode":4,"material":0}]}],"materials":[{"pbrMetallicRoughness":{"baseColorFactor":[1,1,1,1],"metallicFactor":0,"roughnessFactor":1},"doubleSided":true}],"accessors":[{"bufferView":0,"byteOffset":0,"componentType":5126,"count":54,"type":"VEC3","min":[-2.0579268395211394,0.0,-2.156728979096736],"max":[2.19,3.25,2.1567289790967354]},{"bufferView":1,"byteOffset":0,"componentType":5126,"count":54,"type":"VEC3","min":[-0.7939151333645235,-0.5349766590979405,-0.8320314124816723],"max":[0.8448668381587752,1.0,0.8320314124816721]},{"bufferView":2,"byteOffset":0,"componentType":5126,"count":54,"type":"VEC4","min":[0.6768,0.6911999999999999,0.72,1.0],"max":[0.887097292474119,0.9059717029522917,0.9437205239086373,1.0]},{"bufferView":3,"byteOffset":0,"componentType":5126,"count":54,"type":"VEC2","min":[0.0,0.0],"max":[0.0,0.0]},{"bufferView":4,"byteOffset":0,"componentType":5125,"count":54,"type":"SCALAR"}],"bufferViews":[{"buffer":0,"byteOffset":0,"byteLength":648,"target":34962},{"buffer":0,"byteOffset":648,"byteLength":648,"target":34962},{"buffer":0,"byteOffset":1296,"byteLength":864,"target":34962},{"buffer":0,"byteOffset":2160,"byteLength":432,"target":34962},{"buffer":0,"byteOffset":2592,"byteLength":216,"target":34963}],"buffers":[{"uri":"data:application/octet-stream;base64,","byteLength":2808}]}