{"asset":{"version":"2.0","generator":"gen_meshes.py"},"scene":0,"scenes":[{"nodes":[0]}],"nodes":[{"mesh":0,"name":"mesh"}],"meshes":[{"primitives":[{"attributes":{"POSITION":0,"NORMAL":1,"COLOR_0":2,"TEXCOORD_0":3},"indices":4,"mode":4,"material":0}]}],"materials":[{"pbrMetallicRoughness":{"baseColorFactor":[1,1,1,1],"metallicFactor":0,"roughnessFactor":1},"doubleSided":true}],"accessors":[{"bufferView":0,"byteOffset":0,"componentType":5126,"count":42,"type":"VEC3","min":[-0.25227128301267737,0.0,-0.27297981541091065],"max":[0.28,0.55,0.27297981541091065]},{"bufferView":1,"byteOffset":0,"componentType":5126,"count":42,"type":"VEC3","min":[-0.8189330734893437,-0.4169113828673023,-0.8861579350820386],"max":[0.9089471375364322,1.0,0.8861579350820387]},{"bufferView":2,"byteOffset":0,"componentType":5126,"count":42,"type":"VEC4","min":[0.24480000000000002,0.54,0.2592,1.0],"max":[0.32086497812893666,0.7077903929314779,0.3397393886071094,1.0]},{"bufferView":3,"byteOffset":0,"componentType":5126,"count":42,"type":"VEC2","min":[0.0,0.0],"max":[0.0,0.0]},{"bufferView":4,"byteOffset":0,"componentType":5125,"count":42,"type":"SCALAR"}],"bufferViews":[{"buffer":0,"byteOffset":0,"byteLength":504,"target":34962},{"buffer":0,"byteOffset":504,"byteLength":504,"target":34962},{"buffer":0,"byteOffset":1008,"byteLength":672,"target":34962},{"buffer":0,"byteOffset":1680,"byteLength":336,"target":34962},{"buffer":0,"byteOffset":2016,"byteLength":168,"target":34963}],"buffers":[{"uri":"data:application/octet-stream;base64,","byteLength":2184}]}