{"asset":{"version":"2.0","generator":"gen_meshes.py"},"scene":0,"scenes":[{"nodes":[0]}],"nodes":[{"mesh":0,"name":"mesh"}],"meshes":[{"primitives":[{"attributes":{"POSITION":0,"NORMAL":1,"COLOR_0":2,"TEXCOORD_0":3},"indices":4,"mode":4,"material":0}]}],"materials":[{"pbrMetallicRoughness":{"baseColorFactor":[1,1,1,1],"metallicFactor":0,"roughnessFactor":1},"doubleSided":true}],"accessors":[{"bufferView":0,"byteOffset":0,"componentType":5126,"count":6,"type":"VEC3","min":[-0.75,0.55,0.06],"max":[0.75,2.05,0.06]},{"bufferView":1,"byteOffset":0,"componentType":5126,"count":6,"type":"VEC3","min":[0.0,0.0,1.0],"max":[0.0,0.0,1.0]},{"bufferView":2,"byteOffset":0,"componentType":5126,"count":6,"type":"VEC4","min":[0.8318602619543186,0.8318602619543186,0.8318602619543186,1.0],"max":[0.8318602619543186,0.8318602619543186,0.8318602619543186,1.0]},{"bufferView":3,"byteOffset":0,"componentType":5126,"count":6,"type":"VEC2","min":[0.0,0.0],"max":[1.0,1.0]},{"bufferView":4,"byteOffset":0,"componentType":5125,"count":6,"type":"SCALAR"}],"bufferViews":[{"buffer":0,"byteOffset":0,"byteLength":72,"target":34962},{"buffer":0,"byteOffset":72,"byteLength":72,"target":34962},{"buffer":0,"byteOffset":144,"byteLength":96,"target":34962},{"buffer":0,"byteOffset":240,"byteLength":48,"target":34962},{"buffer":0,"byteOffset":288,"byteLength":24,"target":34963}],"buffers":[{"uri":"data:application/octet-stream;base64,","byteLength":312}]}