{"asset":{"version":"2.0","generator":"gen_meshes.py"},"scene":0,"scenes":[{"nodes":[0]}],"nodes":[{"mesh":0,"name":"mesh"}],"meshes":[{"primitives":[{"attributes":{"POSITION":0,"NORMAL":1,"COLOR_0":2,"TEXCOORD_0":3},"indices":4,"mode":4,"material":0}]}],"materials":[{"pbrMetallicRoughness":{"baseColorFactor":[1,1,1,1],"metallicFactor":0,"roughnessFactor":1},"doubleSided":true}],"accessors":[{"bufferView":0,"byteOffset":0,"componentType":5126,"count":24,"type":"VEC3","min":[-2.45,0.0,-2.1],"max":[2.45,1.7,2.1]},{"bufferView":1,"byteOffset":0,"componentType":5126,"count":24,"type":"VEC3","min":[-0.5700815482062941,-1.0,-1.0],"max":[0.5700815482062941,0.821588113591424,1.0]},{"bufferView":2,"byteOffset":0,"componentType":5126,"count":24,"type":"VEC4","min":[0.6624,0.34559999999999996,0.2736,1.0],"max":[0.8975030361667982,0.46826245365224245,0.37070777580802533,1.0]},{"bufferView":3,"byteOffset":0,"componentType":5126,"count":24,"type":"VEC2","min":[0.0,0.0],"max":[0.0,0.0]},{"bufferView":4,"byteOffset":0,"componentType":5125,"count":24,"type":"SCALAR"}],"bufferViews":[{"buffer":0,"byteOffset":0,"byteLength":288,"target":34962},{"buffer":0,"byteOffset":288,"byteLength":288,"target":34962},{"buffer":0,"byteOffset":576,"byteLength":384,"target":34962},{"buffer":0,"byteOffset":960,"byteLength":192,"target":34962},{"buffer":0,"byteOffset":1152,"byteLength":96,"target":34963}],"buffers":[{"uri":"data:application/octet-stream;base64,","byteLength":1248}]}