{"asset":{"version":"2.0","generator":"gen_meshes.py"},"scene":0,"scenes":[{"nodes":[0]}],"nodes":[{"mesh":0,"name":"mesh"}],"meshes":[{"primitives":[{"attributes":{"POSITION":0,"NORMAL":1,"COLOR_0":2,"TEXCOORD_0":3},"indices":4,"mode":4,"material":0}]}],"materials":[{"pbrMetallicRoughness":{"baseColorFactor":[1,1,1,1],"metallicFactor":0,"roughnessFactor":1},"doubleSided":true}],"accessors":[{"bufferView":0,"byteOffset":0,"componentType":5126,"count":390,"type":"VEC3","min":[-1.4136454726636443,-1.45,-1.3444567385079014],"max":[1.4136454726636443,1.45,1.3444567385079014]},{"bufferView":1,"byteOffset":0,"componentType":5126,"count":390,"type":"VEC3","min":[-0.9510565162951536,-0.9432167682902409,-1.0],"max":[0.9510565162951535,0.9432167682902409,1.0]},{"bufferView":2,"byteOffset":0,"componentType":5126,"count":390,"type":"VEC4","min":[0.72,0.72,0.72,1.0],"max":[0.9960440546600431,0.9960440546600431,0.9960440546600431,1.0]},{"bufferView":3,"byteOffset":0,"componentType":5126,"count":390,"type":"VEC2","min":[0.0,0.0],"max":[0.0,0.0]},{"bufferView":4,"byteOffset":0,"componentType":5125,"count":390,"type":"SCALAR"}],"bufferViews":[{"buffer":0,"byteOffset":0,"byteLength":4680,"target":34962},{"buffer":0,"byteOffset":4680,"byteLength":4680,"target":34962},{"buffer":0,"byteOffset":9360,"byteLength":6240,"target":34962},{"buffer":0,"byteOffset":15600,"byteLength":3120,"target":34962},{"buffer":0,"byteOffset":18720,"byteLength":1560,"target":34963}],"buffers":[{"uri":"data:application/octet-stream;base64,","byteLength":20280}]}