{"asset":{"version":"2.0","generator":"gen_meshes.py"},"scene":0,"scenes":[{"nodes":[0]}],"nodes":[{"mesh":0,"name":"mesh"}],"meshes":[{"primitives":[{"attributes":{"POSITION":0,"NORMAL":1,"COLOR_0":2,"TEXCOORD_0":3},"indices":4,"mode":4,"material":0}]}],"materials":[{"pbrMetallicRoughness":{"baseColorFactor":[1,1,1,1],"metallicFactor":0,"roughnessFactor":1},"doubleSided":true}],"accessors":[{"bufferView":0,"byteOffset":0,"componentType":5126,"count":684,"type":"VEC3","min":[-0.42,-0.42,-0.42],"max":[0.42,0.42,0.42]},{"bufferView":1,"byteOffset":0,"componentType":5126,"count":684,"type":"VEC3","min":[-0.9548166109642469,-0.8844863117974736,-0.9548166109642469],"max":[0.9548166109642469,0.9868218020404483,0.9548166109642469]},{"bufferView":2,"byteOffset":0,"componentType":5126,"count":684,"type":"VEC4","min":[0.72,0.612,0.5112,1.0],"max":[0.9963224219208601,0.846874058632731,0.7073889195638106,1.0]},{"bufferView":3,"byteOffset":0,"componentType":5126,"count":684,"type":"VEC2","min":[0.0,0.0],"max":[0.0,0.0]},{"bufferView":4,"byteOffset":0,"componentType":5125,"count":684,"type":"SCALAR"}],"bufferViews":[{"buffer":0,"byteOffset":0,"byteLength":8208,"target":34962},{"buffer":0,"byteOffset":8208,"byteLength":8208,"target":34962},{"buffer":0,"byteOffset":16416,"byteLength":10944,"target":34962},{"buffer":0,"byteOffset":27360,"byteLength":5472,"target":34962},{"buffer":0,"byteOffset":32832,"byteLength":2736,"target":34963}],"buffers":[{"uri":"data:application/octet-stream;base64,","byteLength":35568}]}