{"asset":{"version":"2.0","generator":"gen_meshes.py"},"scene":0,"scenes":[{"nodes":[0]}],"nodes":[{"mesh":0,"name":"mesh"}],"meshes":[{"primitives":[{"attributes":{"POSITION":0,"NORMAL":1,"COLOR_0":2,"TEXCOORD_0":3},"indices":4,"mode":4,"material":0}]}],"materials":[{"pbrMetallicRoughness":{"baseColorFactor":[1,1,1,1],"metallicFactor":0,"roughnessFactor":1},"doubleSided":true}],"accessors":[{"bufferView":0,"byteOffset":0,"componentType":5126,"count":450,"type":"VEC3","min":[-0.6,-0.6,-0.5706339097770922],"max":[0.6,0.6,0.5706339097770922]},{"bufferView":1,"byteOffset":0,"componentType":5126,"count":450,"type":"VEC3","min":[-0.9328165933810452,-0.8452105294253822,-0.9808214100827971],"max":[0.9328165933810452,0.907456073418431,0.9808214100827971]},{"bufferView":2,"byteOffset":0,"componentType":5126,"count":450,"type":"VEC4","min":[0.2592,0.5616,0.3024,1.0],"max":[0.3589152323872537,0.7776496701723831,0.4187344377851293,1.0]},{"bufferView":3,"byteOffset":0,"componentType":5126,"count":450,"type":"VEC2","min":[0.0,0.0],"max":[0.0,0.0]},{"bufferView":4,"byteOffset":0,"componentType":5125,"count":450,"type":"SCALAR"}],"bufferViews":[{"buffer":0,"byteOffset":0,"byteLength":5400,"target":34962},{"buffer":0,"byteOffset":5400,"byteLength":5400,"target":34962},{"buffer":0,"byteOffset":10800,"byteLength":7200,"target":34962},{"buffer":0,"byteOffset":18000,"byteLength":3600,"target":34962},{"buffer":0,"byteOffset":21600,"byteLength":1800,"target":34963}],"buffers":[{"uri":"data:application/octet-stream;base64,","byteLength":23400}]}