{"asset":{"version":"2.0","generator":"gen_meshes.py"},"scene":0,"scenes":[{"nodes":[0]}],"nodes":[{"mesh":0,"name":"mesh"}],"meshes":[{"primitives":[{"attributes":{"POSITION":0,"NORMAL":1,"COLOR_0":2,"TEXCOORD_0":3},"indices":4,"mode":4,"material":0}]}],"materials":[{"pbrMetallicRoughness":{"baseColorFactor":[1,1,1,1],"metallicFactor":0,"roughnessFactor":1},"doubleSided":true}],"accessors":[{"bufferView":0,"byteOffset":0,"componentType":5126,"count":288,"type":"VEC3","min":[-2.2,-0.04,-2.2],"max":[2.2,0.04,2.2]},{"bufferView":1,"byteOffset":0,"componentType":5126,"count":288,"type":"VEC3","min":[-0.9914448613738104,-0.9993280614098093,-0.9914448613738104],"max":[0.9914448613738104,0.9993280614098093,0.9914448613738104]},{"bufferView":2,"byteOffset":0,"componentType":5126,"count":288,"type":"VEC4","min":[0.44639999999999996,0.6335999999999999,0.72,1.0],"max":[0.5888297756272617,0.8357583912128875,0.9497254445600994,1.0]},{"bufferView":3,"byteOffset":0,"componentType":5126,"count":288,"type":"VEC2","min":[0.0,0.0],"max":[0.0,0.0]},{"bufferView":4,"byteOffset":0,"componentType":5125,"count":288,"type":"SCALAR"}],"bufferViews":[{"buffer":0,"byteOffset":0,"byteLength":3456,"target":34962},{"buffer":0,"byteOffset":3456,"byteLength":3456,"target":34962},{"buffer":0,"byteOffset":6912,"byteLength":4608,"target":34962},{"buffer":0,"byteOffset":11520,"byteLength":2304,"target":34962},{"buffer":0,"byteOffset":13824,"byteLength":1152,"target":34963}],"buffers":[{"uri":"data:application/octet-stream;base64,","byteLength":14976}]}