{"asset":{"version":"2.0","generator":"gen_meshes.py"},"scene":0,"scenes":[{"nodes":[0]}],"nodes":[{"mesh":0,"name":"mesh"}],"meshes":[{"primitives":[{"attributes":{"POSITION":0,"NORMAL":1,"COLOR_0":2,"TEXCOORD_0":3},"indices":4,"mode":4,"material":0}]}],"materials":[{"pbrMetallicRoughness":{"baseColorFactor":[1,1,1,1],"metallicFactor":0,"roughnessFactor":1},"doubleSided":true}],"accessors":[{"bufferView":0,"byteOffset":0,"componentType":5126,"count":288,"type":"VEC3","min":[-3.0,-0.04,-3.0],"max":[3.0,0.04,3.0]},{"bufferView":1,"byteOffset":0,"componentType":5126,"count":288,"type":"VEC3","min":[-0.9914448613738104,-0.9996384779622205,-0.9914448613738105],"max":[0.9914448613738105,0.9996384779622205,0.9914448613738105]},{"bufferView":2,"byteOffset":0,"componentType":5126,"count":288,"type":"VEC4","min":[0.3024,0.54,0.7056,1.0],"max":[0.39822505548045967,0.7111161705008209,0.9291917961210725,1.0]},{"bufferView":3,"byteOffset":0,"componentType":5126,"count":288,"type":"VEC2","min":[0.0,0.0],"max":[0.0,0.0]},{"bufferView":4,"byteOffset":0,"componentType":5125,"count":288,"type":"SCALAR"}],"bufferViews":[{"buffer":0,"byteOffset":0,"byteLength":3456,"target":34962},{"buffer":0,"byteOffset":3456,"byteLength":3456,"target":34962},{"buffer":0,"byteOffset":6912,"byteLength":4608,"target":34962},{"buffer":0,"byteOffset":11520,"byteLength":2304,"target":34962},{"buffer":0,"byteOffset":13824,"byteLength":1152,"target":34963}],"buffers":[{"uri":"data:application/octet-stream;base64,","byteLength":14976}]}