{"asset":{"version":"2.0","generator":"gen_meshes.py"},"scene":0,"scenes":[{"nodes":[0]}],"nodes":[{"mesh":0,"name":"mesh"}],"meshes":[{"primitives":[{"attributes":{"POSITION":0,"NORMAL":1,"COLOR_0":2,"TEXCOORD_0":3},"indices":4,"mode":4,"material":0}]}],"materials":[{"pbrMetallicRoughness":{"baseColorFactor":[1,1,1,1],"metallicFactor":0,"roughnessFactor":1},"doubleSided":true}],"accessors":[{"bufferView":0,"byteOffset":0,"componentType":5126,"count":540,"type":"VEC3","min":[-0.46,-0.46,-0.46],"max":[0.46,0.46,0.46]},{"bufferView":1,"byteOffset":0,"componentType":5126,"count":540,"type":"VEC3","min":[-0.9452469612464194,-0.8698102413716697,-0.9452469612464192],"max":[0.9452469612464193,0.86981024137167,0.9452469612464192]},{"bufferView":2,"byteOffset":0,"componentType":5126,"count":540,"type":"VEC4","min":[0.324,0.216,0.396,1.0],"max":[0.4496645931887303,0.2997763954591535,0.5495900583417815,1.0]},{"bufferView":3,"byteOffset":0,"componentType":5126,"count":540,"type":"VEC2","min":[0.0,0.0],"max":[0.0,0.0]},{"bufferView":4,"byteOffset":0,"componentType":5125,"count":540,"type":"SCALAR"}],"bufferViews":[{"buffer":0,"byteOffset":0,"byteLength":6480,"target":34962},{"buffer":0,"byteOffset":6480,"byteLength":6480,"target":34962},{"buffer":0,"byteOffset":12960,"byteLength":8640,"target":34962},{"buffer":0,"byteOffset":21600,"byteLength":4320,"target":34962},{"buffer":0,"byteOffset":25920,"byteLength":2160,"target":34963}],"buffers":[{"uri":"data:application/octet-stream;base64,","byteLength":28080}]}