{"asset":{"version":"2.0","generator":"gen_meshes.py"},"scene":0,"scenes":[{"nodes":[0]}],"nodes":[{"mesh":0,"name":"mesh"}],"meshes":[{"primitives":[{"attributes":{"POSITION":0,"NORMAL":1,"COLOR_0":2,"TEXCOORD_0":3},"indices":4,"mode":4,"material":0}]}],"materials":[{"pbrMetallicRoughness":{"baseColorFactor":[1,1,1,1],"metallicFactor":0,"roughnessFactor":1},"doubleSided":true}],"accessors":[{"bufferView":0,"byteOffset":0,"componentType":5126,"count":351,"type":"VEC3","min":[-0.4122596541939623,-0.45,-0.4320524549450993],"max":[0.43871756048182065,0.45,0.43205245494509925]},{"bufferView":1,"byteOffset":0,"componentType":5126,"count":351,"type":"VEC3","min":[-1.0,-0.8756144924902015,-0.984807753012208],"max":[0.9684952926263006,0.8756144924902016,0.984807753012208]},{"bufferView":2,"byteOffset":0,"componentType":5126,"count":351,"type":"VEC4","min":[0.504,0.5184,0.5616,1.0],"max":[0.6980297394376315,0.7179734462787066,0.7778045668019323,1.0]},{"bufferView":3,"byteOffset":0,"componentType":5126,"count":351,"type":"VEC2","min":[0.0,0.0],"max":[0.0,0.0]},{"bufferView":4,"byteOffset":0,"componentType":5125,"count":351,"type":"SCALAR"}],"bufferViews":[{"buffer":0,"byteOffset":0,"byteLength":4212,"target":34962},{"buffer":0,"byteOffset":4212,"byteLength":4212,"target":34962},{"buffer":0,"byteOffset":8424,"byteLength":5616,"target":34962},{"buffer":0,"byteOffset":14040,"byteLength":2808,"target":34962},{"buffer":0,"byteOffset":16848,"byteLength":1404,"target":34963}],"buffers":[{"uri":"data:application/octet-stream;base64,","byteLength":18252}]}