{"asset":{"version":"2.0","generator":"gen_meshes.py"},"scene":0,"scenes":[{"nodes":[0]}],"nodes":[{"mesh":0,"name":"mesh"}],"meshes":[{"primitives":[{"attributes":{"POSITION":0,"NORMAL":1,"COLOR_0":2,"TEXCOORD_0":3},"indices":4,"mode":4,"material":0}]}],"materials":[{"pbrMetallicRoughness":{"baseColorFactor":[1,1,1,1],"metallicFactor":0,"roughnessFactor":1},"doubleSided":true}],"accessors":[{"bufferView":0,"byteOffset":0,"componentType":5126,"count":450,"type":"VEC3","min":[-0.85,-0.85,-0.8083980388508806],"max":[0.85,0.85,0.8083980388508806]},{"bufferView":1,"byteOffset":0,"componentType":5126,"count":450,"type":"VEC3","min":[-0.9328165933810453,-0.8452105294253824,-0.980821410082797],"max":[0.9328165933810453,0.9074560734184309,0.980821410082797]},{"bufferView":2,"byteOffset":0,"componentType":5126,"count":450,"type":"VEC4","min":[0.7056,0.44639999999999996,0.2016,1.0],"max":[0.977047021498635,0.6181317891113813,0.2791562918567529,1.0]},{"bufferView":3,"byteOffset":0,"componentType":5126,"count":450,"type":"VEC2","min":[0.0,0.0],"max":[0.0,0.0]},{"bufferView":4,"byteOffset":0,"componentType":5125,"count":450,"type":"SCALAR"}],"bufferViews":[{"buffer":0,"byteOffset":0,"byteLength":5400,"target":34962},{"buffer":0,"byteOffset":5400,"byteLength":5400,"target":34962},{"buffer":0,"byteOffset":10800,"byteLength":7200,"target":34962},{"buffer":0,"byteOffset":18000,"byteLength":3600,"target":34962},{"buffer":0,"byteOffset":21600,"byteLength":1800,"target":34963}],"buffers":[{"uri":"data:application/octet-stream;base64,","byteLength":23400}]}