{"asset":{"version":"2.0","generator":"gen_meshes.py"},"scene":0,"scenes":[{"nodes":[0]}],"nodes":[{"mesh":0,"name":"mesh"}],"meshes":[{"primitives":[{"attributes":{"POSITION":0,"NORMAL":1,"COLOR_0":2,"TEXCOORD_0":3},"indices":4,"mode":4,"material":0}]}],"materials":[{"pbrMetallicRoughness":{"baseColorFactor":[1,1,1,1],"metallicFactor":0,"roughnessFactor":1},"doubleSided":true}],"accessors":[{"bufferView":0,"byteOffset":0,"componentType":5126,"count":54,"type":"VEC3","min":[-6.5778483455013586,0.0,-6.893654271085457],"max":[7.0,9.0,6.893654271085456]},{"bufferView":1,"byteOffset":0,"componentType":5126,"count":54,"type":"VEC3","min":[-0.75866232256396,-0.5900706953275247,-0.7950860958707665],"max":[0.807351580487517,1.0,0.7950860958707664]},{"bufferView":2,"byteOffset":0,"componentType":5126,"count":54,"type":"VEC4","min":[0.44639999999999996,0.48960000000000004,0.5903999999999999,1.0],"max":[0.5851067248233551,0.6417299562578733,0.7738508296050826,1.0]},{"bufferView":3,"byteOffset":0,"componentType":5126,"count":54,"type":"VEC2","min":[0.0,0.0],"max":[0.0,0.0]},{"bufferView":4,"byteOffset":0,"componentType":5125,"count":54,"type":"SCALAR"}],"bufferViews":[{"buffer":0,"byteOffset":0,"byteLength":648,"target":34962},{"buffer":0,"byteOffset":648,"byteLength":648,"target":34962},{"buffer":0,"byteOffset":1296,"byteLength":864,"target":34962},{"buffer":0,"byteOffset":2160,"byteLength":432,"target":34962},{"buffer":0,"byteOffset":2592,"byteLength":216,"target":34963}],"buffers":[{"uri":"data:application/octet-stream;base64,","byteLength":2808}]}