{"asset":{"version":"2.0","generator":"gen_meshes.py"},"scene":0,"scenes":[{"nodes":[0]}],"nodes":[{"mesh":0,"name":"mesh"}],"meshes":[{"primitives":[{"attributes":{"POSITION":0,"NORMAL":1,"COLOR_0":2,"TEXCOORD_0":3},"indices":4,"mode":4,"material":0}]}],"materials":[{"pbrMetallicRoughness":{"baseColorFactor":[1,1,1,1],"metallicFactor":0,"roughnessFactor":1},"doubleSided":true}],"accessors":[{"bufferView":0,"byteOffset":0,"componentType":5126,"count":120,"type":"VEC3","min":[-0.16,-0.55,-0.15216904260722458],"max":[0.16,0.55,0.15216904260722458]},{"bufferView":1,"byteOffset":0,"componentType":5126,"count":120,"type":"VEC3","min":[-0.9510565162951535,-0.13703054991553962,-1.0],"max":[0.9510565162951535,0.13703054991553962,1.0]},{"bufferView":2,"byteOffset":0,"componentType":5126,"count":120,"type":"VEC4","min":[0.3744,0.2592,0.17279999999999998,1.0],"max":[0.47505666354266796,0.3288853824526162,0.21925692163507748,1.0]},{"bufferView":3,"byteOffset":0,"componentType":5126,"count":120,"type":"VEC2","min":[0.0,0.0],"max":[0.0,0.0]},{"bufferView":4,"byteOffset":0,"componentType":5125,"count":120,"type":"SCALAR"}],"bufferViews":[{"buffer":0,"byteOffset":0,"byteLength":1440,"target":34962},{"buffer":0,"byteOffset":1440,"byteLength":1440,"target":34962},{"buffer":0,"byteOffset":2880,"byteLength":1920,"target":34962},{"buffer":0,"byteOffset":4800,"byteLength":960,"target":34962},{"buffer":0,"byteOffset":5760,"byteLength":480,"target":34963}],"buffers":[{"uri":"data:application/octet-stream;base64,","byteLength":6240}]}