{"asset":{"version":"2.0","generator":"gen_meshes.py"},"scene":0,"scenes":[{"nodes":[0]}],"nodes":[{"mesh":0,"name":"mesh"}],"meshes":[{"primitives":[{"attributes":{"POSITION":0,"NORMAL":1,"COLOR_0":2,"TEXCOORD_0":3},"indices":4,"mode":4,"material":0}]}],"materials":[{"pbrMetallicRoughness":{"baseColorFactor":[1,1,1,1],"metallicFactor":0,"roughnessFactor":1},"doubleSided":true}],"accessors":[{"bufferView":0,"byteOffset":0,"componentType":5126,"count":264,"type":"VEC3","min":[-0.045,-0.045,-0.045],"max":[0.045,0.045,0.045]},{"bufferView":1,"byteOffset":0,"componentType":5126,"count":264,"type":"VEC3","min":[-0.8968088177445296,-0.678598344545847,-0.8968088177445296],"max":[0.8968088177445296,0.9604224288946982,0.8968088177445296]},{"bufferView":2,"byteOffset":0,"componentType":5126,"count":264,"type":"VEC4","min":[0.1008,0.1008,0.1296,1.0],"max":[0.13841174067377215,0.13841174067377215,0.1779579522948499,1.0]},{"bufferView":3,"byteOffset":0,"componentType":5126,"count":264,"type":"VEC2","min":[0.0,0.0],"max":[0.0,0.0]},{"bufferView":4,"byteOffset":0,"componentType":5125,"count":264,"type":"SCALAR"}],"bufferViews":[{"buffer":0,"byteOffset":0,"byteLength":3168,"target":34962},{"buffer":0,"byteOffset":3168,"byteLength":3168,"target":34962},{"buffer":0,"byteOffset":6336,"byteLength":4224,"target":34962},{"buffer":0,"byteOffset":10560,"byteLength":2112,"target":34962},{"buffer":0,"byteOffset":12672,"byteLength":1056,"target":34963}],"buffers":[{"uri":"data:application/octet-stream;base64,","byteLength":13728}]}